<svg xmlns="http://www.w3.org/2000/svg" viewBox="0 0 24 24" width="24" height="24"><circle cx="12" cy="12" r="12" fill="#EE1C25"/><path d="M6.6,3.9L7.363,6.249L9.834,6.249L7.835,7.701L8.598,10.051L6.6,8.599L4.602,10.051L5.365,7.701L3.366,6.249L5.837,6.249Z" fill="#FFDE00"/><path d="M11.593,3.019L11.564,3.854L12.349,4.14L11.546,4.37L11.517,5.205L11.05,4.513L10.247,4.743L10.761,4.085L10.294,3.392L11.079,3.678ZM14.281,5.261L13.838,5.969L14.375,6.609L13.565,6.407L13.122,7.116L13.063,6.282L12.253,6.08L13.027,5.767L12.969,4.934L13.506,5.574ZM14.533,8.7L13.795,9.093L13.94,9.915L13.339,9.335L12.601,9.727L12.967,8.976L12.366,8.396L13.194,8.512L13.56,7.761L13.705,8.584ZM12.311,10.898L11.476,10.941L11.26,11.748L10.961,10.968L10.126,11.012L10.776,10.486L10.476,9.706L11.177,10.161L11.826,9.636L11.61,10.443Z" fill="#FFDE00"/></svg>
